<svg xmlns="http://www.w3.org/2000/svg" width="112.5" height="145.57" viewBox="0 0 112.5 145.57"><title>company__bulb</title><g id="Ebene_2" data-name="Ebene 2"><g id="Ebene_1-2" data-name="Ebene 1"><path d="M41,83.37H28v-10H41Zm-12-1H40v-8H29Z" fill="#606060"/><path d="M62,83.37H49v-10H62Zm-12-1H61v-8H50Z" fill="#606060"/><path d="M83,83.37H70v-10H83Zm-12-1H82v-8H71Z" fill="#606060"/><path d="M41,67H28V57H41ZM29,66H40V58H29Z" fill="#606060"/><path d="M62,67H49V57H62ZM50,66H61V58H50Z" fill="#606060"/><path d="M83,67H70V57H83ZM71,66H82V58H71Z" fill="#606060"/><path d="M41,99.72H28v-10H41Zm-12-1H40v-8H29Z" fill="#606060"/><path d="M62,99.72H49v-10H62Zm-12-1H61v-8H50Z" fill="#606060"/><path d="M83,99.72H70v-10H83Zm-12-1H82v-8H71Z" fill="#606060"/><path d="M41,116.07H28v-10H41Zm-12-1H40v-8H29Z" fill="#606060"/><path d="M62,116.07H49v-10H62Zm-12-1H61v-8H50Z" fill="#606060"/><path d="M83,116.07H70v-10H83Zm-12-1H82v-8H71Z" fill="#606060"/><path d="M93.5,144.57V47.74l-38-15.2-38,15.2v96.84H0v1H38v-18H73v18h39.5v-1Zm-8,0H74v-18H37v18H18.5V48.41l37-14.8,37,14.8v96.16Z" fill="#606060"/><path d="M56.17,0a9.67,9.67,0,0,0-9.58,9.74,8.35,8.35,0,0,0,2,5.62,7.49,7.49,0,0,1,2.44,4.93,3.93,3.93,0,0,0,2.18,3.46v2.82a1.46,1.46,0,0,0,1.5,1.5h3a1.46,1.46,0,0,0,1.5-1.5V23.84a4,4,0,0,0,2.35-3.55,7.73,7.73,0,0,1,2.4-5,8.41,8.41,0,0,0,1.92-5.56A9.75,9.75,0,0,0,56.17,0Zm2.08,26.57a.46.46,0,0,1-.5.5h-3a.46.46,0,0,1-.5-.5V24.13a4.32,4.32,0,0,0,1,.12h2.2a4.37,4.37,0,0,0,.81-.08Zm0-3.43a3.32,3.32,0,0,1-.81.11h-2.2a3.31,3.31,0,0,1-1-.16v-1a.46.46,0,0,1,.5-.5h3a.46.46,0,0,1,.5.5Zm5-8.53a8.71,8.71,0,0,0-2.67,5.68,2.91,2.91,0,0,1-1.35,2.42v-.64a1.46,1.46,0,0,0-1.5-1.5h-3a1.46,1.46,0,0,0-1.5,1.5v.51a2.88,2.88,0,0,1-1.18-2.29,8.47,8.47,0,0,0-2.73-5.64,7.49,7.49,0,0,1-1.76-4.92,8.66,8.66,0,1,1,17.33,0A7.55,7.55,0,0,1,63.27,14.61Z" fill="#606060"/><path d="M61.74,9.31a6,6,0,0,0-5.89-4.84v-1a7,7,0,0,1,6.87,5.65Z" fill="#606060"/></g></g></svg>