<svg xmlns="http://www.w3.org/2000/svg" width="110" height="159.68" viewBox="0 0 110 159.68">
  <title>company_bulb</title>
  <g id="Ebene_2" data-name="Ebene 2">
    <g id="Ebene_1-2" data-name="Ebene 1">
      <g>
        <g id="init-company">
          <g id="init-company-illu">
            <g opacity="0.2">
              <g>
                <rect x="27.87" y="89.2" width="11.73" height="8.8" fill="none" stroke="red" stroke-width="1.5"/>
                <rect x="48.4" y="89.2" width="11.73" height="8.8" fill="none" stroke="red" stroke-width="1.5"/>
                <rect x="68.93" y="89.2" width="11.73" height="8.8" fill="none" stroke="red" stroke-width="1.5"/>
                <rect x="27.87" y="73.21" width="11.73" height="8.8" fill="none" stroke="red" stroke-width="1.5"/>
                <rect x="48.4" y="73.21" width="11.73" height="8.8" fill="none" stroke="red" stroke-width="1.5"/>
                <rect x="68.93" y="73.21" width="11.73" height="8.8" fill="none" stroke="red" stroke-width="1.5"/>
                <rect x="27.87" y="105.18" width="11.73" height="8.8" fill="none" stroke="red" stroke-width="1.5"/>
                <rect x="48.4" y="105.18" width="11.73" height="8.8" fill="none" stroke="red" stroke-width="1.5"/>
                <rect x="68.93" y="105.18" width="11.73" height="8.8" fill="none" stroke="red" stroke-width="1.5"/>
                <rect x="27.87" y="121.17" width="11.73" height="8.8" fill="none" stroke="red" stroke-width="1.5"/>
                <rect x="48.4" y="121.17" width="11.73" height="8.8" fill="none" stroke="red" stroke-width="1.5"/>
                <rect x="68.93" y="121.17" width="11.73" height="8.8" fill="none" stroke="red" stroke-width="1.5"/>
                <line x1="17.6" y1="158.82" y2="158.82" fill="none" stroke="red" stroke-width="1.5"/>
                <line x1="110" y1="158.82" x2="90.93" y2="158.82" fill="none" stroke="red" stroke-width="1.5"/>
              </g>
              <path d="M54.89.86a11.9,11.9,0,0,0-11.84,12,10.29,10.29,0,0,0,2.48,6.87c1.85,1.88,3.37,4.41,3.37,6.89a4.67,4.67,0,0,0,4.78,4.52h2.87a4.67,4.67,0,0,0,4.78-4.52c0-2.48,1.49-5,3.3-7a10.36,10.36,0,0,0,2.32-6.81A12.09,12.09,0,0,0,54.89.86" fill="#fff" stroke="red" stroke-miterlimit="10" stroke-width="1.5"/>
              <path d="M54.89.86a11.9,11.9,0,0,0-11.84,12,10.29,10.29,0,0,0,2.48,6.87c1.85,1.88,3.37,4.41,3.37,6.89a4.67,4.67,0,0,0,4.78,4.52h2.87a4.67,4.67,0,0,0,4.78-4.52c0-2.48,1.49-5,3.3-7a10.36,10.36,0,0,0,2.32-6.81A12.09,12.09,0,0,0,54.89.86Z" fill="none" stroke="red" stroke-width="1.5"/>
              <path d="M62.79,12.22a8.48,8.48,0,0,0-8.32-6.83" fill="none" stroke="red" stroke-width="1.72"/>
            </g>
          </g>
          <g id="init-company-illu-2" data-name="init-company-illu">
            <g>
              <g>
                <rect x="27.87" y="89.2" width="11.73" height="8.8" fill="none" stroke="#606060" stroke-miterlimit="10" stroke-width="1.72"/>
                <rect x="48.4" y="89.2" width="11.73" height="8.8" fill="none" stroke="#606060" stroke-miterlimit="10" stroke-width="1.72"/>
                <rect x="68.93" y="89.2" width="11.73" height="8.8" fill="none" stroke="#606060" stroke-miterlimit="10" stroke-width="1.72"/>
                <rect x="27.87" y="73.21" width="11.73" height="8.8" fill="none" stroke="#606060" stroke-miterlimit="10" stroke-width="1.72"/>
                <rect x="48.4" y="73.21" width="11.73" height="8.8" fill="none" stroke="#606060" stroke-miterlimit="10" stroke-width="1.72"/>
                <rect x="68.93" y="73.21" width="11.73" height="8.8" fill="none" stroke="#606060" stroke-miterlimit="10" stroke-width="1.72"/>
                <rect x="27.87" y="105.18" width="11.73" height="8.8" fill="none" stroke="#606060" stroke-miterlimit="10" stroke-width="1.72"/>
                <rect x="48.4" y="105.18" width="11.73" height="8.8" fill="none" stroke="#606060" stroke-miterlimit="10" stroke-width="1.72"/>
                <rect x="68.93" y="105.18" width="11.73" height="8.8" fill="none" stroke="#606060" stroke-miterlimit="10" stroke-width="1.72"/>
                <rect x="27.87" y="121.17" width="11.73" height="8.8" fill="none" stroke="#606060" stroke-miterlimit="10" stroke-width="1.72"/>
                <rect x="48.4" y="121.17" width="11.73" height="8.8" fill="none" stroke="#606060" stroke-miterlimit="10" stroke-width="1.72"/>
                <rect x="68.93" y="121.17" width="11.73" height="8.8" fill="none" stroke="#606060" stroke-miterlimit="10" stroke-width="1.72"/>
                <polygon points="90.93 63.98 54.27 49.31 17.6 63.98 17.6 158.82 36.67 158.82 36.67 141.22 71.87 141.22 71.87 158.82 72.06 158.82 90.93 158.82 90.93 63.98" fill="none" stroke="#606060" stroke-miterlimit="10" stroke-width="1.72"/>
                <line x1="17.6" y1="158.82" y2="158.82" fill="none" stroke="#606060" stroke-miterlimit="10" stroke-width="1.72"/>
                <line x1="110" y1="158.82" x2="90.93" y2="158.82" fill="none" stroke="#606060" stroke-miterlimit="10" stroke-width="1.72"/>
              </g>
              <path d="M54.89.86a11.9,11.9,0,0,0-11.84,12,10.29,10.29,0,0,0,2.48,6.87c1.85,1.88,3.37,4.41,3.37,6.89a4.67,4.67,0,0,0,4.78,4.52h2.87a4.67,4.67,0,0,0,4.78-4.52c0-2.48,1.49-5,3.3-7a10.36,10.36,0,0,0,2.32-6.81A12.09,12.09,0,0,0,54.89.86" fill="none" stroke="#606060" stroke-miterlimit="10" stroke-width="1.72"/>
              <path d="M54.89.86a11.9,11.9,0,0,0-11.84,12,10.29,10.29,0,0,0,2.48,6.87c1.85,1.88,3.37,4.41,3.37,6.89a4.67,4.67,0,0,0,4.78,4.52h2.87a4.67,4.67,0,0,0,4.78-4.52c0-2.48,1.49-5,3.3-7a10.36,10.36,0,0,0,2.32-6.81A12.09,12.09,0,0,0,54.89.86Z" fill="none" stroke="#606060" stroke-miterlimit="10" stroke-width="1.72"/>
              <path d="M62.79,12.22a8.48,8.48,0,0,0-8.32-6.83" fill="none" stroke="#606060" stroke-miterlimit="10" stroke-width="1.72"/>
            </g>
          </g>
        </g>
        <path d="M53,27.68a1.28,1.28,0,0,0-1.3,1.3v5.87a1.28,1.28,0,0,0,1.3,1.3H57a1.28,1.28,0,0,0,1.3-1.3V29a1.28,1.28,0,0,0-1.3-1.3Z" fill="#fff" stroke="#606060" stroke-linejoin="round" stroke-width="1.5"/>
      </g>
    </g>
  </g>
</svg>
