<svg xmlns="http://www.w3.org/2000/svg" width="26" height="26" viewBox="0 0 26 26">
  <title>info__white</title>
  <g id="Ebene_2" data-name="Ebene 2">
    <g id="Ebene_1-2" data-name="Ebene 1">
      <path d="M13,0A13,13,0,1,0,26,13,13,13,0,0,0,13,0Zm1,19.31a1.55,1.55,0,0,1-1.11.39,1.58,1.58,0,0,1-1.13-.39,1.57,1.57,0,0,1,0-2.13,1.57,1.57,0,0,1,1.12-.4,1.53,1.53,0,0,1,1.11.4,1.59,1.59,0,0,1,0,2.13ZM16.85,12A4.92,4.92,0,0,1,14,13.11L14,15.19h-2.1l0-3.11a6.84,6.84,0,0,0,2.89-.84,1.89,1.89,0,0,0,.87-1.66,1.72,1.72,0,0,0-.65-1.42A3,3,0,0,0,13,7.64a2.89,2.89,0,0,0-2,.68,2.82,2.82,0,0,0-.89,1.9l-2-1A4.13,4.13,0,0,1,9.72,6.68a5.63,5.63,0,0,1,3.43-1,5.8,5.8,0,0,1,3.45.94,3,3,0,0,1,1.31,2.63A3.42,3.42,0,0,1,16.85,12Z" fill="#fff"/>
    </g>
  </g>
</svg>
