<svg xmlns="http://www.w3.org/2000/svg" width="76" height="113" viewBox="0 0 76 113">
  <title>license</title>
  <g id="Ebene_2" data-name="Ebene 2">
    <g id="Ebene_1-2" data-name="Ebene 1">
      <path d="M76,0H0V100.24H42.55v12a.75.75,0,0,0,1.28.53l5.52-5.46,5.52,5.46a.75.75,0,0,0,1.28-.53v-12H76ZM54.63,110.46l-4.77-4.72a.75.75,0,0,0-1.06,0L44,110.46V87.3l.46-.1.88,2.36a.75.75,0,0,0,1.14.34l2-1.47,1.76,1.8a.75.75,0,0,0,.54.22H51a.75.75,0,0,0,.55-.37l1.27-2.17,1.84.73Zm.14-23.37-2-.8a.75.75,0,0,0-.92.32l-1.1,1.88-1.53-1.56a.75.75,0,0,0-1-.08l-1.77,1.27-.76-2a.74.74,0,0,0-.86-.47l-2.13.45.13-2.17a.75.75,0,0,0-.59-.78l-2.13-.46,1-1.93a.75.75,0,0,0-.22-.95l-1.76-1.29,1.71-1.35a.75.75,0,0,0,.18-1l-1.08-1.89,2.11-.54a.75.75,0,0,0,.56-.8l-.22-2.17,2.15.36a.75.75,0,0,0,.84-.5l.68-2.07,1.82,1.2a.75.75,0,0,0,1-.12L50.32,68l1.17,1.84a.75.75,0,0,0,.94.28l2-.88.32,2.15a.75.75,0,0,0,.74.64h2.18l-.59,2.1a.75.75,0,0,0,.41.88l2,.89-1.39,1.68a.75.75,0,0,0,0,1l1.46,1.62-2,1a.75.75,0,0,0-.38.9l.67,2.07-2.18.09a.75.75,0,0,0-.71.67ZM74.5,98.74H56.13V88.29h0s0,0,0-.06l.27-2.5,2.52-.11a.75.75,0,0,0,.68-1l-.77-2.4,2.26-1.12A.75.75,0,0,0,61.34,80l-1.68-1.88,1.61-1.94A.75.75,0,0,0,61,75l-2.3-1,.68-2.42a.75.75,0,0,0-.72-.95H56.13l-.37-2.49a.75.75,0,0,0-1-.57l-2.31,1-1.35-2.12a.75.75,0,0,0-.57-.34.76.76,0,0,0-.62.24l-1.7,1.86-2.1-1.39a.75.75,0,0,0-1.13.39l-.79,2.39-2.49-.42a.76.76,0,0,0-.64.19.75.75,0,0,0-.23.62l.25,2.5-2.44.63a.75.75,0,0,0-.46,1.1l1.25,2.18-2,1.56a.75.75,0,0,0,0,1.19l2,1.49-1.17,2.23a.75.75,0,0,0,.51,1.08l2.47.53-.16,2.51a.75.75,0,0,0,.9.78l.51-.11V98.74H1.5V1.5h73Z" fill="#606060"/>
    </g>
  </g>
</svg>
