<svg xmlns="http://www.w3.org/2000/svg" xmlns:xlink="http://www.w3.org/1999/xlink" width="149.21" height="44.24" viewBox="0 0 149.21 44.24">
  <defs>
    <clipPath id="clip-path">
      <polygon points="20.53 26.68 14.89 21.03 17 18.91 20.19 22.1 25.04 15.55 27.45 17.34 20.53 26.68" fill="none"/>
    </clipPath>
    <linearGradient id="Unbenannter_Verlauf_3" data-name="Unbenannter Verlauf 3" x1="-137.45" y1="641.86" x2="-136.4" y2="641.86" gradientTransform="matrix(14.43, 0, 0, -14.43, 1996.6, 9281.26)" gradientUnits="userSpaceOnUse">
      <stop offset="0" stop-color="#00b945"/>
      <stop offset="1" stop-color="#00b9b3"/>
    </linearGradient>
    <clipPath id="clip-path-2">
      <path d="M11.38,28.29V10.12H30.86V28.29l-9.74,5.41Zm-3-21.16V30.05l12.74,7.07,12.74-7.07V7.12Z" fill="none"/>
    </clipPath>
    <linearGradient id="Unbenannter_Verlauf_3-2" x1="-149.74" y1="623.3" x2="-148.68" y2="623.3" gradientTransform="matrix(31.29, 0, 0, -31.29, 4690.33, 19526.53)" xlink:href="#Unbenannter_Verlauf_3"/>
  </defs>
  <title>logo</title>
  <g id="Ebene_2" data-name="Ebene 2">
    <g id="Ebene_1-2" data-name="Ebene 1">
      <polygon points="60.58 16.53 56.85 16.53 56.85 25.65 53.88 25.65 53.88 16.53 50.14 16.53 50.14 14.22 60.58 14.22 60.58 16.53" fill="#1a1a18"/>
      <g>
        <path d="M71.08,17.29a4.45,4.45,0,0,0-.66,2.65,4.45,4.45,0,0,0,.66,2.65,2.45,2.45,0,0,0,3.8,0,4.51,4.51,0,0,0,.65-2.65,4.51,4.51,0,0,0-.65-2.65,2.45,2.45,0,0,0-3.8,0M76,14.75a4.72,4.72,0,0,1,1.93,2,6.88,6.88,0,0,1,.67,3.16,6.88,6.88,0,0,1-.67,3.16,4.72,4.72,0,0,1-1.93,2,6.73,6.73,0,0,1-6,0,4.7,4.7,0,0,1-1.94-2,6.88,6.88,0,0,1-.68-3.16,6.88,6.88,0,0,1,.68-3.16,4.69,4.69,0,0,1,1.94-2,6.73,6.73,0,0,1,6,0" fill="#1a1a18"/>
        <path d="M93.82,14.54A6.09,6.09,0,0,1,96,16.11l-1.68,1.94a3.69,3.69,0,0,0-1.34-1.27,3.9,3.9,0,0,0-1.84-.41,2.56,2.56,0,0,0-1.38.31,1,1,0,0,0-.48.83.8.8,0,0,0,.51.7,6.62,6.62,0,0,0,1.74.49A7.62,7.62,0,0,1,94.86,20a2.85,2.85,0,0,1,1,2.34,3,3,0,0,1-.62,1.89,3.84,3.84,0,0,1-1.72,1.21,7,7,0,0,1-2.48.42,8.74,8.74,0,0,1-3.15-.48,5.45,5.45,0,0,1-2.09-1.46l1.52-2.08a3.87,3.87,0,0,0,1.52,1.32,5,5,0,0,0,2,.38,3,3,0,0,0,1.43-.27.84.84,0,0,0,.48-.77q0-.4-.51-.65a7.3,7.3,0,0,0-1.71-.48,12.75,12.75,0,0,1-2.43-.7,3.57,3.57,0,0,1-1.49-1.1,2.83,2.83,0,0,1-.53-1.77,3.32,3.32,0,0,1,.58-1.92,3.78,3.78,0,0,1,1.7-1.32A6.7,6.7,0,0,1,91,14.05a7.15,7.15,0,0,1,2.78.48" fill="#1a1a18"/>
        <path d="M111,14.54a6.09,6.09,0,0,1,2.14,1.57l-1.68,1.94a3.69,3.69,0,0,0-1.34-1.27,3.91,3.91,0,0,0-1.84-.41,2.56,2.56,0,0,0-1.38.31,1,1,0,0,0-.48.83.8.8,0,0,0,.51.7,6.62,6.62,0,0,0,1.74.49A7.62,7.62,0,0,1,112.06,20a2.85,2.85,0,0,1,1,2.34,3,3,0,0,1-.62,1.89,3.84,3.84,0,0,1-1.72,1.21,7,7,0,0,1-2.48.42,8.74,8.74,0,0,1-3.15-.48A5.45,5.45,0,0,1,103,23.88l1.52-2.08A3.87,3.87,0,0,0,106,23.12a5,5,0,0,0,2,.38,3,3,0,0,0,1.43-.27.84.84,0,0,0,.48-.77q0-.4-.51-.65a7.27,7.27,0,0,0-1.7-.48,12.75,12.75,0,0,1-2.43-.7,3.58,3.58,0,0,1-1.49-1.1,2.83,2.83,0,0,1-.53-1.77,3.32,3.32,0,0,1,.58-1.92,3.78,3.78,0,0,1,1.7-1.32,6.7,6.7,0,0,1,2.64-.48,7.15,7.15,0,0,1,2.78.48" fill="#1a1a18"/>
        <path d="M129.31,25a5.75,5.75,0,0,1-3.2.86,6.07,6.07,0,0,1-3-.7,4.69,4.69,0,0,1-1.94-2,6.87,6.87,0,0,1-.68-3.16,6.88,6.88,0,0,1,.68-3.15,4.68,4.68,0,0,1,1.94-2,6.72,6.72,0,0,1,6.14.09A3.76,3.76,0,0,1,131,17.2l-2.61,1.06a2.62,2.62,0,0,0-.75-1.45,2.17,2.17,0,0,0-1.42-.42,2.32,2.32,0,0,0-2,.91,4.3,4.3,0,0,0-.69,2.64,4.42,4.42,0,0,0,.67,2.64,2.24,2.24,0,0,0,1.93.91,2.32,2.32,0,0,0,1.51-.45,2.4,2.4,0,0,0,.76-1.42l2.7.76a4.36,4.36,0,0,1-1.8,2.59" fill="#1a1a18"/>
      </g>
      <path d="M142.91,18.29l.47-1.78h0l.5,1.8.83,2.73H142Zm-1.26-4.07-4,11.42h3l.8-2.58h3.95l.78,2.58h3.06l-4-11.42Z" fill="#1a1a18"/>
      <g clip-path="url(#clip-path)">
        <rect x="13.53" y="13.96" width="15.27" height="14.31" transform="translate(-5.25 7.11) rotate(-17)" fill="url(#Unbenannter_Verlauf_3)"/>
      </g>
      <g clip-path="url(#clip-path-2)">
        <rect x="4.56" y="4.05" width="33.13" height="36.14" transform="translate(-5.54 7.14) rotate(-17)" fill="url(#Unbenannter_Verlauf_3-2)"/>
      </g>
    </g>
  </g>
</svg>
