<svg xmlns="http://www.w3.org/2000/svg" width="49.39" height="77.01" viewBox="0 0 49.39 77.01">
  <title>person__business__principal__white__small</title>
  <g id="Ebene_2" data-name="Ebene 2">
    <g id="Ebene_1-2" data-name="Ebene 1">
      <polygon points="28.21 56.16 21.62 56.16 23.13 60.72 26.7 60.72 28.21 56.16" fill="none" stroke="#fff" stroke-miterlimit="10" stroke-width="1.5"/>
      <polygon points="23.41 60.72 21 76.26 28.83 76.26 26.42 60.72 23.41 60.72" fill="none" stroke="#fff" stroke-miterlimit="10" stroke-width="1.5"/>
      <path d="M23.55,76.26H1.36L.75,62.55s0-7.31,4-10A68.92,68.92,0,0,1,15.57,47" fill="none" stroke="#fff" stroke-miterlimit="10" stroke-width="1.5"/>
      <path d="M19,76.26H48l.61-13.71s0-7.31-4-10A68.92,68.92,0,0,0,33.82,47" fill="none" stroke="#fff" stroke-miterlimit="10" stroke-width="1.5"/>
      <path d="M15.88,42.08l-.3,5s3,9.12,9.12,9.12" fill="none" stroke="#fff" stroke-miterlimit="10" stroke-width="1.5"/>
      <path d="M33.51,42.08l.3,5s-3,9.12-9.12,9.12" fill="none" stroke="#fff" stroke-miterlimit="10" stroke-width="1.5"/>
      <path d="M15.42,47.4s-.76,8.36-.76,9.12,7.75-.76,7.75-.76" fill="none" stroke="#fff" stroke-miterlimit="10" stroke-width="1.5"/>
      <path d="M34,47.4s.76,8.36.76,9.12-8.06-.76-8.06-.76" fill="none" stroke="#fff" stroke-miterlimit="10" stroke-width="1.5"/>
      <path d="M35.34,36.68V28.2h0a10.63,10.63,0,0,0-21.24,0h0v8.47h0a10.63,10.63,0,0,0,21.24,0Z" fill="none" stroke="#fff" stroke-miterlimit="10" stroke-width="1.5"/>
      <path d="M14,30.06c7.49,0,13.26-6.37,13.26-6.37s4.14,6.37,5.44,6.37" fill="none" stroke="#fff" stroke-miterlimit="10" stroke-width="1.5"/>
      <polygon points="34.92 2.15 34.92 12.44 25.57 12.44 34.92 2.15" fill="none" stroke="#fff" stroke-miterlimit="10" stroke-width="1.5"/>
      <polygon points="24.65 1.33 17.08 12.44 32.23 12.44 24.65 1.33" fill="none" stroke="#fff" stroke-miterlimit="10" stroke-width="1.5"/>
      <g id="incharge-illu">
        <g opacity="0.2">
          <polygon points="14.39 2.14 14.39 12.44 23.85 12.44 14.39 2.14" fill="none" stroke="#fff" stroke-miterlimit="10" stroke-width="1.5"/>
        </g>
        <polygon points="14.39 2.14 14.39 12.44 23.85 12.44 14.39 2.14" fill="none" stroke="#fff" stroke-miterlimit="10" stroke-width="1.5"/>
      </g>
    </g>
  </g>
</svg>
