<svg xmlns="http://www.w3.org/2000/svg" width="65.35" height="101.98" viewBox="0 0 65.35 101.98">
  <title>person__business__principal</title>
  <g id="Ebene_2" data-name="Ebene 2">
    <g id="Ebene_1-2" data-name="Ebene 1">
      <g id="incharge-illu">
        <g opacity="0.2">
          <g>
            <path d="M44.84,62.28s9.11,3.62,14.43,7.28S64.6,83,64.6,83l-.81,18.28H1.56L.75,83s0-9.74,5.33-13.4,14.43-7.28,14.43-7.28" fill="none" stroke="#000" stroke-width="1.34"/>
            <path d="M20.92,55.66l-.41,6.62s4.05,12.16,12.16,12.16" fill="none" stroke="#000" stroke-width="1.34"/>
            <path d="M44.43,55.66l.41,6.62S40.78,74.44,32.68,74.44" fill="none" stroke="#000" stroke-width="1.34"/>
            <path d="M46.86,48.46V37.16h0a14.17,14.17,0,0,0-28.33,0h0v11.3h0a14.17,14.17,0,0,0,28.33,0Z" fill="none" stroke="#000" stroke-width="1.34"/>
            <path d="M20.31,62.75s-1,11.15-1,12.16,10.34-1,10.34-1" fill="none" stroke="#000" stroke-width="1.34"/>
            <path d="M45.13,62.75s1,11.15,1,12.16-10.74-1-10.74-1" fill="none" stroke="#000" stroke-width="1.34"/>
            <path d="M18.43,39.64c10,0,17.68-8.49,17.68-8.49s5.51,8.49,7.26,8.49" fill="none" stroke="#000" stroke-width="1.34"/>
            <polygon points="32.62 1.33 22.52 16.14 42.73 16.14 32.62 1.33" fill="none" stroke="#000" stroke-width="1.34"/>
            <polygon points="18.94 2.41 18.94 16.14 31.55 16.14 18.94 2.41" fill="none" stroke="#000" stroke-width="1.34"/>
            <polygon points="46.3 2.42 46.3 16.14 33.84 16.14 46.3 2.42" fill="none" stroke="#000" stroke-width="1.34"/>
          </g>
        </g>
        <g>
          <path d="M44.84,62.28s9.11,3.62,14.43,7.28S64.6,83,64.6,83l-.81,18.28H1.56L.75,83s0-9.74,5.33-13.4,14.43-7.28,14.43-7.28" fill="none" stroke="#606060" stroke-miterlimit="10" stroke-width="1.5"/>
          <path d="M20.92,55.66l-.41,6.62s4.05,12.16,12.16,12.16" fill="none" stroke="#606060" stroke-miterlimit="10" stroke-width="1.5"/>
          <path d="M44.43,55.66l.41,6.62S40.78,74.44,32.68,74.44" fill="none" stroke="#606060" stroke-miterlimit="10" stroke-width="1.5"/>
          <path d="M46.86,48.46V37.16h0a14.17,14.17,0,0,0-28.33,0h0v11.3h0a14.17,14.17,0,0,0,28.33,0Z" fill="none" stroke="#606060" stroke-miterlimit="10" stroke-width="1.5"/>
          <path d="M20.31,62.75s-1,11.15-1,12.16,10.34-1,10.34-1" fill="none" stroke="#606060" stroke-miterlimit="10" stroke-width="1.5"/>
          <path d="M45.13,62.75s1,11.15,1,12.16-10.74-1-10.74-1" fill="none" stroke="#606060" stroke-miterlimit="10" stroke-width="1.5"/>
          <path d="M18.43,39.64c10,0,17.68-8.49,17.68-8.49s5.51,8.49,7.26,8.49" fill="none" stroke="#606060" stroke-miterlimit="10" stroke-width="1.5"/>
          <polygon points="32.62 1.33 22.52 16.14 42.73 16.14 32.62 1.33" fill="none" stroke="#606060" stroke-miterlimit="10" stroke-width="1.5"/>
          <polygon points="18.94 2.41 18.94 16.14 31.55 16.14 18.94 2.41" fill="none" stroke="#606060" stroke-miterlimit="10" stroke-width="1.5"/>
          <polygon points="46.3 2.42 46.3 16.14 33.84 16.14 46.3 2.42" fill="none" stroke="#606060" stroke-miterlimit="10" stroke-width="1.5"/>
        </g>
      </g>
      <polygon points="37.36 74.44 28.58 74.44 30.59 80.52 35.34 80.52 37.36 74.44" fill="none" stroke="#606060" stroke-linejoin="round" stroke-width="1.5"/>
      <polygon points="30.96 80.52 27.74 101.23 38.19 101.23 34.98 80.52 30.96 80.52" fill="none" stroke="#606060" stroke-linejoin="round" stroke-width="1.5"/>
    </g>
  </g>
</svg>
