<svg xmlns="http://www.w3.org/2000/svg" width="64" height="100.02" viewBox="0 0 64 100.02"><title>person__business__principal__white</title><g id="Ebene_2" data-name="Ebene 2"><g id="Ebene_1-2" data-name="Ebene 1"><path d="M64,81.42c0-.4-.06-9.92-5.47-13.63-4.73-3.24-12.49-6.48-14-7.11l-.36-5.84a14.46,14.46,0,0,0,2.33-6.94h.05V36.24l0-.5h0a14.48,14.48,0,0,0-28.9,0H17.5V47.39l0,.5h0a14.46,14.46,0,0,0,2.33,6.94l-.36,5.84c-1.55.63-9.32,3.87-14,7.11C.06,71.5,0,81,0,81.44L.82,100H26.51V100H38V100H63.18ZM30.5,99H27.68l3-19.47H33.8L36.8,99Zm3.72-20.47h-4l-1.66-5h2.67c.24,0,.49,0,.73,0s.49,0,.73,0h3.15Zm-14-15.63c1.08,2.51,3.5,7.17,7.33,9.4-3.56.65-7.26,1.15-8.2,1C19.38,71.91,19.85,66.53,20.18,62.86ZM36.43,72.3c4-2.27,6.42-7.14,7.47-9.62.33,3.67.82,9.2.89,10.56C43.83,73.41,40.14,72.94,36.43,72.3ZM18.5,47.09V39.16c8.46-.26,15.07-6.3,16.82-8.05,1.61,2.44,5.53,8.08,7.24,8.08v-1c-.9,0-4.2-4.23-6.74-8.15l-.35-.54L35,30c-.07.08-7.26,7.88-16.52,8.18V36.74l0-.48a13.48,13.48,0,0,1,27,0l0,10.63,0,.48a13.49,13.49,0,0,1-2.34,7.15h0v0a13.5,13.5,0,0,1-22.21,0v0h0a13.49,13.49,0,0,1-2.34-7.15ZM32,61.39A14.42,14.42,0,0,0,43.2,56.1l.3,4.86c-.37,1-4,10.9-10.81,11.54H31.32C24.56,71.86,20.88,62,20.5,61l.3-4.86A14.42,14.42,0,0,0,32,61.39ZM24.5,99H1.78L1,81.42c0-.09.06-9.39,5-12.81a85,85,0,0,1,13.23-6.75c-.19,2-1,10.71-1,11.62a.65.65,0,0,0,.24.51,2.66,2.66,0,0,0,1.44.25,50.71,50.71,0,0,0,7.49-1l2.06,6.2h.14L26.67,99Zm37.72,0H37.81l-3-19.47h.14l2-6.08a50.29,50.29,0,0,0,7.09.84,2.78,2.78,0,0,0,1.5-.26.64.64,0,0,0,.24-.5c0-.9-.77-9.47-1-11.59A84.47,84.47,0,0,1,58,68.62c5,3.41,5,12.71,5,12.79Z" fill="#fff"/><path d="M32,16H45.95V.67L38.21,9.18,31.95,0,25.72,9.13,17.95.67V16H32Zm-9.1-1,2.91-4.26L29.75,15Zm11.35,0,3.82-4.21L41,15ZM44.95,3.25V15H42.18l-3.39-5Zm-13-1.48,5.57,8.17L32.93,15H31.1L26.41,9.89Zm-13,1.46L25.14,10l-3.42,5H18.95Z" fill="#fff"/></g></g></svg>