<svg xmlns="http://www.w3.org/2000/svg" width="65.35" height="79.25" viewBox="0 0 65.35 79.25">
  <title>person__private</title>
  <g id="Ebene_2" data-name="Ebene 2">
    <g id="Ebene_1-2" data-name="Ebene 1">
      <g id="incharge-illu">
        <g opacity="0.2">
          <g>
            <path d="M44.84,39.55s9.11,3.62,14.43,7.28,5.33,13.4,5.33,13.4L63.79,78.5H1.56L.75,60.22s0-9.74,5.33-13.4,14.43-7.28,14.43-7.28" fill="none" stroke="#000" stroke-width="1.34"/>
            <path d="M20.92,32.93l-.41,6.62s4.05,12.16,12.16,12.16" fill="none" stroke="#000" stroke-width="1.34"/>
            <path d="M44.43,32.93l.41,6.62S40.78,51.71,32.68,51.71V78.5" fill="none" stroke="#000" stroke-width="1.34"/>
            <path d="M46.86,25.73V14.43h0a14.17,14.17,0,0,0-28.33,0h0v11.3h0a14.17,14.17,0,0,0,28.33,0Z" fill="none" stroke="#000" stroke-width="1.34"/>
            <path d="M20.31,40s-1,11.15-1,12.16,10.34-1,10.34-1" fill="none" stroke="#000" stroke-width="1.34"/>
            <path d="M45.13,40s1,11.15,1,12.16-10.74-1-10.74-1" fill="none" stroke="#000" stroke-width="1.34"/>
            <path d="M18.43,16.91c10,0,17.68-8.49,17.68-8.49s5.51,8.49,7.26,8.49" fill="none" stroke="#000" stroke-width="1.34"/>
          </g>
        </g>
        <g>
          <path d="M44.84,39.55s9.11,3.62,14.43,7.28,5.33,13.4,5.33,13.4L63.79,78.5H1.56L.75,60.22s0-9.74,5.33-13.4,14.43-7.28,14.43-7.28" fill="none" stroke="#606060" stroke-miterlimit="10" stroke-width="1.5"/>
          <path d="M20.92,32.93l-.41,6.62s4.05,12.16,12.16,12.16" fill="none" stroke="#606060" stroke-miterlimit="10" stroke-width="1.5"/>
          <path d="M44.43,32.93l.41,6.62S40.78,51.71,32.68,51.71V78.5" fill="none" stroke="#606060" stroke-miterlimit="10" stroke-width="1.5"/>
          <path d="M46.86,25.73V14.43h0a14.17,14.17,0,0,0-28.33,0h0v11.3h0a14.17,14.17,0,0,0,28.33,0Z" fill="none" stroke="#606060" stroke-miterlimit="10" stroke-width="1.5"/>
          <path d="M20.31,40s-1,11.15-1,12.16,10.34-1,10.34-1" fill="none" stroke="#606060" stroke-miterlimit="10" stroke-width="1.5"/>
          <path d="M45.13,40s1,11.15,1,12.16-10.74-1-10.74-1" fill="none" stroke="#606060" stroke-miterlimit="10" stroke-width="1.5"/>
          <path d="M18.43,16.91c10,0,17.68-8.49,17.68-8.49s5.51,8.49,7.26,8.49" fill="none" stroke="#606060" stroke-miterlimit="10" stroke-width="1.5"/>
        </g>
      </g>
    </g>
  </g>
</svg>
