<?xml version="1.0" encoding="utf-8"?><svg width="1934" height="1844" viewBox="0 0 1934 1844" xmlns="http://www.w3.org/2000/svg" xmlns:xlink="http://www.w3.org/1999/xlink"><svg width="166.6" height="54.25" viewBox="-5 -5 166.6 54.25" id="Element_1"><defs><clipPath id="ab"><path d="M11.11 28.29V10.12h19v18.17l-9.51 5.4zM8.19 7.12V30l12.43 7.07L33 30V7.12z" fill="none"/></clipPath><linearGradient id="aa" data-name="Unbenannter Verlauf 2" x1="-1143.13" y1="512.1" x2="-1141.67" y2="512.1" gradientTransform="scale(22.5) rotate(-17 1144.638 -4077.83)" gradientUnits="userSpaceOnUse"><stop offset="0" stop-color="#00ba45"/><stop offset="1" stop-color="#00bab4"/></linearGradient><clipPath id="ac"><path fill="none" d="M20.04 26.67l-5.51-5.64 2.06-2.12 3.12 3.19 4.73-6.54 2.35 1.78-6.75 9.33z"/></clipPath><linearGradient id="ad" x1="-1091.78" y1="466.69" x2="-1090.33" y2="466.69" gradientTransform="matrix(9.92 -3.03 -3.03 -9.92 12257.08 1344.87)" xlink:href="#aa"/></defs><title>Element 1</title><g data-name="Ebene 1-2"><g data-name="Ebene 1-2-2" fill="#1a1a18"><path d="M63.77 17.92h-3.9v9.56h-3.12v-9.56h-3.91v-2.41h10.93v2.41zM74.78 18.71a4.67 4.67 0 0 0-.69 2.78 4.67 4.67 0 0 0 .69 2.77 2.32 2.32 0 0 0 2 .94 2.29 2.29 0 0 0 2-.94 4.72 4.72 0 0 0 .68-2.77 4.72 4.72 0 0 0-.68-2.78 2.29 2.29 0 0 0-2-.94 2.32 2.32 0 0 0-2 .94M79.9 16a4.94 4.94 0 0 1 2 2.12 7.2 7.2 0 0 1 .71 3.31 7.2 7.2 0 0 1-.71 3.31 4.94 4.94 0 0 1-2 2.12 7 7 0 0 1-6.27 0 4.93 4.93 0 0 1-2-2.12 7.21 7.21 0 0 1-.71-3.31 7.21 7.21 0 0 1 .71-3.31 4.93 4.93 0 0 1 2-2.12 7 7 0 0 1 6.27 0M98.6 15.83a6.38 6.38 0 0 1 2.24 1.65l-1.76 2a3.88 3.88 0 0 0-1.41-1.33 4.09 4.09 0 0 0-1.93-.43 2.69 2.69 0 0 0-1.45.4 1 1 0 0 0-.51.87.84.84 0 0 0 .53.73 7 7 0 0 0 1.82.52 8 8 0 0 1 3.54 1.32 3 3 0 0 1 1.06 2.44 3.11 3.11 0 0 1-.65 2 4 4 0 0 1-1.8 1.27 7.32 7.32 0 0 1-2.6.44 9.17 9.17 0 0 1-3.3-.5 5.7 5.7 0 0 1-2.19-1.59l1.6-2.18a4.06 4.06 0 0 0 1.6 1.38 5.2 5.2 0 0 0 2.14.4A3.13 3.13 0 0 0 97 25a.88.88 0 0 0 .5-.81q0-.42-.54-.68A7.63 7.63 0 0 0 95.2 23a13.41 13.41 0 0 1-2.55-.73 3.74 3.74 0 0 1-1.56-1.11 3 3 0 0 1-.55-1.85 3.48 3.48 0 0 1 .61-2 4 4 0 0 1 1.77-1.45 7 7 0 0 1 2.76-.5 7.48 7.48 0 0 1 2.91.51M116.63 15.83a6.39 6.39 0 0 1 2.24 1.65l-1.76 2a3.88 3.88 0 0 0-1.41-1.33 4.09 4.09 0 0 0-1.93-.43 2.69 2.69 0 0 0-1.45.33 1 1 0 0 0-.51.87.83.83 0 0 0 .53.73 7 7 0 0 0 1.82.52 8 8 0 0 1 3.54 1.32 3 3 0 0 1 1.06 2.45 3.11 3.11 0 0 1-.65 2 4 4 0 0 1-1.8 1.27 7.32 7.32 0 0 1-2.6.44 9.17 9.17 0 0 1-3.3-.5 5.7 5.7 0 0 1-2.22-1.52l1.6-2.18a4.06 4.06 0 0 0 1.6 1.38 5.2 5.2 0 0 0 2.14.4A3.13 3.13 0 0 0 115 25a.88.88 0 0 0 .5-.81q0-.42-.54-.68a7.63 7.63 0 0 0-1.79-.5 13.41 13.41 0 0 1-2.55-.73 3.74 3.74 0 0 1-1.53-1.11 3 3 0 0 1-.55-1.85 3.48 3.48 0 0 1 .61-2 4 4 0 0 1 1.85-1.44 7 7 0 0 1 2.76-.5 7.48 7.48 0 0 1 2.91.51M135.79 26.76a6 6 0 0 1-3.36.9 6.36 6.36 0 0 1-3.14-.74 4.92 4.92 0 0 1-2-2.12 7.2 7.2 0 0 1-.71-3.31 7.21 7.21 0 0 1 .71-3.3 4.91 4.91 0 0 1 2-2.13 7 7 0 0 1 6.44.09 3.94 3.94 0 0 1 1.8 2.48l-2.74 1.11a2.74 2.74 0 0 0-.78-1.52 2.27 2.27 0 0 0-1.49-.43 2.43 2.43 0 0 0-2.05 1 4.51 4.51 0 0 0-.72 2.77 4.63 4.63 0 0 0 .7 2.77 2.35 2.35 0 0 0 2 1 2.43 2.43 0 0 0 1.58-.47 2.52 2.52 0 0 0 .8-1.49l2.83.8a4.56 4.56 0 0 1-1.89 2.71M150 19.77l.49-1.87.53 1.89.87 2.86h-2.79zm-1.32-4.26l-4.21 12h3.14l.83-2.7h4.13l.82 2.7h3.21l-4.19-12z"/></g><g clip-path="url(#ab)"><path fill="url(#aa)" d="M0 9.69L30.92 0l10.31 34.55-30.92 9.7L0 9.69z"/></g><g clip-path="url(#ac)"><path fill="url(#ad)" d="M11.49 16.5l14.25-4.47 4.08 13.69-14.25 4.47-4.08-13.69z"/></g></g></svg><svg width="27.41" height="34.41" viewBox="-5 -5 27.41 34.41" id="arrow__down__white" x="167" y="55"><title>arrow__down__white</title><path fill="#fff" d="M16 14.29l-6.29 6.3V0h-2v20.59l-6.3-6.3L0 15.71l8.71 8.7 8.7-8.7L16 14.29z" data-name="Ebene 1"/></svg><svg width="34.41" height="27.41" viewBox="-5 -5 34.41 27.41" id="arrow__right__white" x="195" y="90"><title>arrow__right__white</title><path fill="#fff" d="M14.29 1.41l6.3 6.3H0v2h20.59L14.29 16l1.42 1.41 8.7-8.7L15.71 0l-1.42 1.41z" data-name="Ebene 1"/></svg><svg width="236.92" height="78.91" viewBox="-5 -5 236.92 78.91" id="badge__white" x="230" y="118"><title>badge__white</title><g data-name="Ebene 1"><g fill="#fff"><path d="M74.83 23.47a1.16 1.16 0 0 0 .14.67.61.61 0 0 0 .51.19 2 2 0 0 0 .39 0 2.81 2.81 0 0 0 .39-.11l-.16 1.27a1.74 1.74 0 0 1-.56.21 3.29 3.29 0 0 1-.68.07 1.88 1.88 0 0 1-1.42-.47 2.15 2.15 0 0 1-.44-1.56V16h1.83zM77.07 17q0-1 1.13-1t1.13 1q0 1-1.13 1t-1.13-1zm2 8.6h-1.79v-6.68h1.83zM86.15 19.32a2.65 2.65 0 0 1 1 1.43l-1.71.61q-.24-1.21-1.29-1.21a1.44 1.44 0 0 0-1.21.54 2.54 2.54 0 0 0-.42 1.58 2.45 2.45 0 0 0 .48 1.57 1.44 1.44 0 0 0 1.19.53 1.28 1.28 0 0 0 1.39-1.19l1.65.53a2.4 2.4 0 0 1-1 1.47 3.41 3.41 0 0 1-5.49-2.92 3.48 3.48 0 0 1 .9-2.55 3.35 3.35 0 0 1 2.5-.91 3.44 3.44 0 0 1 2.01.52zM94.81 22.95h-4.72a1.56 1.56 0 0 0 1.67 1.41 1.89 1.89 0 0 0 .95-.21 1.14 1.14 0 0 0 .52-.61l1.49.55a2.36 2.36 0 0 1-1.07 1.22 3.83 3.83 0 0 1-1.89.42 3.16 3.16 0 0 1-3.47-3.47 3.53 3.53 0 0 1 .88-2.55 3.28 3.28 0 0 1 2.48-.91 3.1 3.1 0 0 1 2.38.89 3.6 3.6 0 0 1 .83 2.55 4.79 4.79 0 0 1-.05.71zm-4.24-2.43a1.94 1.94 0 0 0-.5 1.15h3.11a1.93 1.93 0 0 0-.51-1.14 1.42 1.42 0 0 0-1-.39 1.45 1.45 0 0 0-1.1.38zM102.11 19.41a2.36 2.36 0 0 1 .66 1.8v4.38h-1.83v-3.84q0-1.52-1.19-1.52a1.47 1.47 0 0 0-1.09.45 1.9 1.9 0 0 0-.45 1.39v3.52H96.4v-6.67H98l.05 1.19a2.3 2.3 0 0 1 .92-1 2.7 2.7 0 0 1 1.36-.33 2.42 2.42 0 0 1 1.78.63zM104.14 24.44l1.07-1.09a1.58 1.58 0 0 0 .77.81 2.91 2.91 0 0 0 1.23.23 2.07 2.07 0 0 0 .91-.16.49.49 0 0 0 .32-.44q0-.23-.3-.39a4.14 4.14 0 0 0-1-.31 5.19 5.19 0 0 1-2.15-.81 1.65 1.65 0 0 1-.62-1.35 1.8 1.8 0 0 1 .35-1.05 2.39 2.39 0 0 1 1-.79 4 4 0 0 1 1.63-.3 4.14 4.14 0 0 1 1.81.34 2.88 2.88 0 0 1 1.16 1.07l-1.13 1a2 2 0 0 0-.73-.79 2.13 2.13 0 0 0-1.09-.25 1.76 1.76 0 0 0-.87.19.54.54 0 0 0-.33.45.54.54 0 0 0 .32.47 4 4 0 0 0 1.13.35 5.13 5.13 0 0 1 2.06.77 1.57 1.57 0 0 1 .61 1.31 1.76 1.76 0 0 1-.79 1.5 3.82 3.82 0 0 1-2.25.57 3.46 3.46 0 0 1-3.11-1.33zM117.9 22.95h-4.72a1.56 1.56 0 0 0 1.67 1.41 1.89 1.89 0 0 0 .95-.21 1.14 1.14 0 0 0 .52-.61l1.49.55a2.36 2.36 0 0 1-1.07 1.22 3.83 3.83 0 0 1-1.89.42 3.16 3.16 0 0 1-3.47-3.47 3.53 3.53 0 0 1 .88-2.55 3.28 3.28 0 0 1 2.48-.91 3.1 3.1 0 0 1 2.38.89 3.6 3.6 0 0 1 .83 2.55 4.79 4.79 0 0 1-.05.71zm-4.24-2.43a1.94 1.94 0 0 0-.5 1.15h3.11a1.93 1.93 0 0 0-.51-1.14 1.42 1.42 0 0 0-1-.39 1.45 1.45 0 0 0-1.1.38zM125.94 16v9.59h-1.63l-.08-1.24a2.35 2.35 0 0 1-.87 1 2.4 2.4 0 0 1-1.33.37 2.58 2.58 0 0 1-2.09-.91 3.86 3.86 0 0 1-.76-2.54 3.91 3.91 0 0 1 .76-2.56 2.57 2.57 0 0 1 2.09-.92 2.35 2.35 0 0 1 1.25.33 2.22 2.22 0 0 1 .83.9V16zm-2.24 7.8a2.33 2.33 0 0 0 .41-1.48v-.13a2.34 2.34 0 0 0-.41-1.47 1.49 1.49 0 0 0-2.28 0 2.46 2.46 0 0 0-.41 1.53 2.46 2.46 0 0 0 .41 1.53 1.5 1.5 0 0 0 2.28 0zM138 19.71a3.91 3.91 0 0 1 .76 2.56 3.86 3.86 0 0 1-.76 2.54 2.58 2.58 0 0 1-2.09.91 2.38 2.38 0 0 1-1.37-.39 2.44 2.44 0 0 1-.87-1.06l-.07 1.32H132V16h1.83v4a2.31 2.31 0 0 1 .84-.9 2.35 2.35 0 0 1 1.25-.33 2.57 2.57 0 0 1 2.08.94zm-1.48 4.08a2.46 2.46 0 0 0 .41-1.53 2.46 2.46 0 0 0-.41-1.53 1.51 1.51 0 0 0-2.24-.07 2.12 2.12 0 0 0-.47 1.31v.59a2.11 2.11 0 0 0 .47 1.31 1.52 1.52 0 0 0 2.24-.07zM143.73 26a4.49 4.49 0 0 1-1.14 1.91 2.59 2.59 0 0 1-1.73.55 2.54 2.54 0 0 1-1.69-.52l.45-1.29a1.11 1.11 0 0 0 .47.33 2.08 2.08 0 0 0 .65.09 1.16 1.16 0 0 0 .67-.17 1.3 1.3 0 0 0 .43-.63l.24-.57-.73-1.73-2-5h2l1.25 4 .36 1.33.4-1.41 1.23-3.92h1.85z"/></g><path fill="#fff" d="M89.28 36.87H83.5v14.17h-4.62V36.87h-5.81V33.3h16.21v3.57z"/><g fill="#fff"><path d="M105.59 38.05a6.93 6.93 0 0 0-1 4.11 6.93 6.93 0 0 0 1 4.11 3.44 3.44 0 0 0 3 1.4 3.4 3.4 0 0 0 2.94-1.4 7 7 0 0 0 1-4.11 7 7 0 0 0-1-4.11 3.4 3.4 0 0 0-2.94-1.4 3.44 3.44 0 0 0-3 1.4m7.59-3.94a7.32 7.32 0 0 1 3 3.14 10.68 10.68 0 0 1 1 4.9 10.67 10.67 0 0 1-1 4.91 7.32 7.32 0 0 1-3 3.15 10.45 10.45 0 0 1-9.29 0 7.3 7.3 0 0 1-3-3.15 10.67 10.67 0 0 1-1-4.91 10.68 10.68 0 0 1 1-4.9 7.29 7.29 0 0 1 3-3.14 10.44 10.44 0 0 1 9.29 0M140.9 33.78a9.46 9.46 0 0 1 3.32 2.45l-2.61 3a5.72 5.72 0 0 0-2.08-2 6.05 6.05 0 0 0-2.86-.63 4 4 0 0 0-2.15.48 1.47 1.47 0 0 0-.75 1.29 1.24 1.24 0 0 0 .79 1.09 10.31 10.31 0 0 0 2.7.77 11.82 11.82 0 0 1 5.26 2 4.43 4.43 0 0 1 1.57 3.63 4.61 4.61 0 0 1-1 2.93 6 6 0 0 1-2.67 1.88 10.85 10.85 0 0 1-3.86.65 13.57 13.57 0 0 1-4.89-.74 8.46 8.46 0 0 1-3.25-2.27l2.36-3.23a6 6 0 0 0 2.37 2 7.71 7.71 0 0 0 3.17.59 4.64 4.64 0 0 0 2.22-.42 1.31 1.31 0 0 0 .74-1.2q0-.62-.79-1a11.35 11.35 0 0 0-2.65-.74 19.78 19.78 0 0 1-3.78-1.09 5.53 5.53 0 0 1-2.31-1.71 4.39 4.39 0 0 1-.82-2.74 5.16 5.16 0 0 1 .9-3 5.88 5.88 0 0 1 2.63-2.06 10.42 10.42 0 0 1 4.1-.74 11.1 11.1 0 0 1 4.31.75M167.61 33.78a9.45 9.45 0 0 1 3.32 2.45l-2.61 3a5.73 5.73 0 0 0-2.08-2 6.06 6.06 0 0 0-2.86-.63 4 4 0 0 0-2.15.48 1.47 1.47 0 0 0-.75 1.29 1.23 1.23 0 0 0 .79 1.09 10.3 10.3 0 0 0 2.7.77 11.83 11.83 0 0 1 5.26 2 4.43 4.43 0 0 1 1.57 3.63 4.61 4.61 0 0 1-1 2.93 6 6 0 0 1-2.67 1.88 10.85 10.85 0 0 1-3.86.65 13.57 13.57 0 0 1-4.89-.74 8.45 8.45 0 0 1-3.25-2.27l2.36-3.23a6 6 0 0 0 2.37 2 7.71 7.71 0 0 0 3.17.59 4.63 4.63 0 0 0 2.22-.42 1.31 1.31 0 0 0 .74-1.2q0-.62-.79-1a11.35 11.35 0 0 0-2.65-.74 19.78 19.78 0 0 1-3.78-1.09 5.54 5.54 0 0 1-2.31-1.71 4.39 4.39 0 0 1-.82-2.74 5.16 5.16 0 0 1 .9-3 5.88 5.88 0 0 1 2.63-2.06 10.42 10.42 0 0 1 4.1-.74 11.1 11.1 0 0 1 4.31.75M196 50a8.91 8.91 0 0 1-5 1.33 9.44 9.44 0 0 1-4.65-1.09 7.28 7.28 0 0 1-3-3.14 10.68 10.68 0 0 1-1-4.9 10.7 10.7 0 0 1 1-4.89 7.27 7.27 0 0 1 3-3.16 10.43 10.43 0 0 1 9.54.13 5.85 5.85 0 0 1 2.66 3.67l-4.06 1.64a4.06 4.06 0 0 0-1.16-2.26 3.37 3.37 0 0 0-2.2-.65 3.6 3.6 0 0 0-3 1.41 6.67 6.67 0 0 0-1.08 4.1 6.86 6.86 0 0 0 1 4.1 3.48 3.48 0 0 0 3 1.41 3.6 3.6 0 0 0 2.34-.7 3.73 3.73 0 0 0 1.18-2.2l4.23 1.2a6.75 6.75 0 0 1-2.8 4"/></g><path d="M217.13 39.61l.72-2.77h.05l.78 2.79 1.32 4.26h-4.19zm-2-6.32L208.93 51h4.65l1.24-4h6.13l1.21 4h4.76l-6.21-17.7z" fill="#fff"/><path fill="none" stroke="#fff" d="M57.5 0v68.91"/><path fill="#fff" d="M18.82 43.31l-8.75-8.76 3.29-3.28 4.94 4.94 7.51-10.14 3.74 2.76-10.73 14.48z"/><path d="M4.64 45.8V17.64h30.2V45.8l-15.1 8.38zM0 13v35.54l19.74 11 19.74-11V13z" fill="#fff"/></g></svg><svg width="35.4" height="31.02" viewBox="-5 -5 35.4 31.02" id="checkmark" x="467" y="197"><defs><linearGradient id="ea" data-name="Unbenannter Verlauf 6" x1="19.81" y1="1.44" x2="5.67" y2="15.58" gradientUnits="userSpaceOnUse"><stop offset="0" stop-color="#00b945"/><stop offset="0" stop-color="#00b9b3"/><stop offset="1" stop-color="#00b948"/></linearGradient></defs><title>checkmark</title><g data-name="Ebene 1"><path fill="url(#ea)" d="M1.41 11.35l4.34-4.44 4.14 4.04 9.76-9.54 4.34 4.44-14.1 13.77-8.48-8.27z"/><path d="M19.64 2.83l2.94 3L9.89 18.22l-7.06-6.89 2.94-3 4.12 4 9.75-9.52m0-2.83l-1.4 1.42-8.35 8.15-2.73-2.66L5.73 5.5l-1.4 1.43-2.94 3L0 11.36l1.43 1.4 7.06 6.89L9.89 21l1.4-1.36L24 7.26l1.43-1.4L24 4.44l-2.94-3L19.67 0z" fill="#fff"/></g></svg><svg width="50" height="50" viewBox="-5 -5 50 50" id="checkmark__solid" x="503" y="229"><title>checkmark__solid</title><g data-name="Ebene 1"><path d="M20 40A20 20 0 1 0 0 20a20 20 0 0 0 20 20" fill="#00b945"/><path fill="#fff" d="M16.29 29.5l-7.81-7.81 2.83-2.83 4.98 4.99 12.59-12.59 2.83 2.83L16.29 29.5z"/></g></svg><svg width="29.74" height="25.39" viewBox="-5 -5 29.74 25.39" id="checkmark__white" x="553" y="279"><title>checkmark__white</title><path fill="#fff" d="M7.06 15.39L0 8.5l2.94-3 4.12 4.02L16.81 0l2.94 3.01L7.06 15.39z" data-name="Ebene 1"/></svg><svg width="120" height="120.9" viewBox="-5 -5 120 120.9" id="company" x="583" y="305"><title>company</title><g fill="none" stroke="#606060" stroke-width="1.34" data-name="Ebene 1"><path d="M27.87 40.61H39.6v8.8H27.87zM48.4 40.61h11.73v8.8H48.4zM68.93 40.61h11.73v8.8H68.93zM27.87 24.62H39.6v8.8H27.87zM48.4 24.62h11.73v8.8H48.4zM68.93 24.62h11.73v8.8H68.93zM27.87 56.6H39.6v8.8H27.87zM48.4 56.6h11.73v8.8H48.4zM68.93 56.6h11.73v8.8H68.93zM27.87 72.59H39.6v8.8H27.87zM48.4 72.59h11.73v8.8H48.4zM68.93 72.59h11.73v8.8H68.93z"/><path d="M90.93 15.39L54.27.72 17.6 15.39v94.84h19.07v-17.6h35.2v17.6H90.93V15.39zM17.6 110.23H0M110 110.23H90.93"/></g></svg><svg width="122.5" height="155.57" viewBox="-5 -5 122.5 155.57" id="company__bulb" x="703" y="426"><title>company__bulb</title><g data-name="Ebene 1" fill="#606060"><path d="M41 83.37H28v-10h13zm-12-1h11v-8H29zM62 83.37H49v-10h13zm-12-1h11v-8H50zM83 83.37H70v-10h13zm-12-1h11v-8H71zM41 67H28V57h13zm-12-1h11v-8H29zM62 67H49V57h13zm-12-1h11v-8H50zM83 67H70V57h13zm-12-1h11v-8H71zM41 99.72H28v-10h13zm-12-1h11v-8H29zM62 99.72H49v-10h13zm-12-1h11v-8H50zM83 99.72H70v-10h13zm-12-1h11v-8H71zM41 116.07H28v-10h13zm-12-1h11v-8H29zM62 116.07H49v-10h13zm-12-1h11v-8H50zM83 116.07H70v-10h13zm-12-1h11v-8H71z"/><path d="M93.5 144.57V47.74l-38-15.2-38 15.2v96.84H0v1h38v-18h35v18h39.5v-1zm-8 0H74v-18H37v18H18.5V48.41l37-14.8 37 14.8v96.16zM56.17 0a9.67 9.67 0 0 0-9.58 9.74 8.35 8.35 0 0 0 2 5.62 7.49 7.49 0 0 1 2.44 4.93 3.93 3.93 0 0 0 2.18 3.46v2.82a1.46 1.46 0 0 0 1.5 1.5h3a1.46 1.46 0 0 0 1.5-1.5v-2.73a4 4 0 0 0 2.35-3.55 7.73 7.73 0 0 1 2.4-5 8.41 8.41 0 0 0 1.92-5.56A9.75 9.75 0 0 0 56.17 0zm2.08 26.57a.46.46 0 0 1-.5.5h-3a.46.46 0 0 1-.5-.5v-2.44a4.32 4.32 0 0 0 1 .12h2.2a4.37 4.37 0 0 0 .81-.08zm0-3.43a3.32 3.32 0 0 1-.81.11h-2.2a3.31 3.31 0 0 1-1-.16v-1a.46.46 0 0 1 .5-.5h3a.46.46 0 0 1 .5.5zm5-8.53a8.71 8.71 0 0 0-2.67 5.68 2.91 2.91 0 0 1-1.35 2.42v-.64a1.46 1.46 0 0 0-1.5-1.5h-3a1.46 1.46 0 0 0-1.5 1.5v.51a2.88 2.88 0 0 1-1.18-2.29 8.47 8.47 0 0 0-2.73-5.64 7.49 7.49 0 0 1-1.76-4.92 8.66 8.66 0 1 1 17.33 0 7.55 7.55 0 0 1-1.62 4.88z"/><path d="M61.74 9.31a6 6 0 0 0-5.89-4.84v-1a7 7 0 0 1 6.87 5.65z"/></g></svg><svg width="120" height="169.68" viewBox="-5 -5 120 169.68" id="company_bulb" x="826" y="582"><title>company_bulb</title><g data-name="Ebene 1"><g opacity=".2" stroke="red"><g fill="none" stroke-width="1.5"><path d="M27.87 89.2H39.6V98H27.87zM48.4 89.2h11.73V98H48.4zM68.93 89.2h11.73V98H68.93zM27.87 73.21H39.6v8.8H27.87zM48.4 73.21h11.73v8.8H48.4zM68.93 73.21h11.73v8.8H68.93zM27.87 105.18H39.6v8.8H27.87zM48.4 105.18h11.73v8.8H48.4zM68.93 105.18h11.73v8.8H68.93zM27.87 121.17H39.6v8.8H27.87zM48.4 121.17h11.73v8.8H48.4zM68.93 121.17h11.73v8.8H68.93zM17.6 158.82H0M110 158.82H90.93"/></g><path d="M54.89.86a11.9 11.9 0 0 0-11.84 12 10.29 10.29 0 0 0 2.48 6.87c1.85 1.88 3.37 4.41 3.37 6.89a4.67 4.67 0 0 0 4.78 4.52h2.87a4.67 4.67 0 0 0 4.78-4.52c0-2.48 1.49-5 3.3-7a10.36 10.36 0 0 0 2.32-6.81A12.09 12.09 0 0 0 54.89.86" fill="#fff" stroke-miterlimit="10" stroke-width="1.5"/><path d="M54.89.86a11.9 11.9 0 0 0-11.84 12 10.29 10.29 0 0 0 2.48 6.87c1.85 1.88 3.37 4.41 3.37 6.89a4.67 4.67 0 0 0 4.78 4.52h2.87a4.67 4.67 0 0 0 4.78-4.52c0-2.48 1.49-5 3.3-7a10.36 10.36 0 0 0 2.32-6.81A12.09 12.09 0 0 0 54.89.86z" fill="none" stroke-width="1.5"/><path d="M62.79 12.22a8.48 8.48 0 0 0-8.32-6.83" fill="none" stroke-width="1.72"/></g><g fill="none" stroke="#606060" stroke-miterlimit="10" stroke-width="1.72" data-name="init-company-illu"><path d="M27.87 89.2H39.6V98H27.87zM48.4 89.2h11.73V98H48.4zM68.93 89.2h11.73V98H68.93zM27.87 73.21H39.6v8.8H27.87zM48.4 73.21h11.73v8.8H48.4zM68.93 73.21h11.73v8.8H68.93zM27.87 105.18H39.6v8.8H27.87zM48.4 105.18h11.73v8.8H48.4zM68.93 105.18h11.73v8.8H68.93zM27.87 121.17H39.6v8.8H27.87zM48.4 121.17h11.73v8.8H48.4zM68.93 121.17h11.73v8.8H68.93z"/><path d="M90.93 63.98L54.27 49.31 17.6 63.98v94.84h19.07v-17.6h35.2v17.6H90.93V63.98zM17.6 158.82H0M110 158.82H90.93M54.89.86a11.9 11.9 0 0 0-11.84 12 10.29 10.29 0 0 0 2.48 6.87c1.85 1.88 3.37 4.41 3.37 6.89a4.67 4.67 0 0 0 4.78 4.52h2.87a4.67 4.67 0 0 0 4.78-4.52c0-2.48 1.49-5 3.3-7a10.36 10.36 0 0 0 2.32-6.81A12.09 12.09 0 0 0 54.89.86"/><path d="M54.89.86a11.9 11.9 0 0 0-11.84 12 10.29 10.29 0 0 0 2.48 6.87c1.85 1.88 3.37 4.41 3.37 6.89a4.67 4.67 0 0 0 4.78 4.52h2.87a4.67 4.67 0 0 0 4.78-4.52c0-2.48 1.49-5 3.3-7a10.36 10.36 0 0 0 2.32-6.81A12.09 12.09 0 0 0 54.89.86zM62.79 12.22a8.48 8.48 0 0 0-8.32-6.83"/></g><path d="M53 27.68a1.28 1.28 0 0 0-1.3 1.3v5.87a1.28 1.28 0 0 0 1.3 1.3h4a1.28 1.28 0 0 0 1.3-1.3V29a1.28 1.28 0 0 0-1.3-1.3z" fill="#fff" stroke="#606060" stroke-linejoin="round" stroke-width="1.5"/></g></svg><svg width="86" height="115" viewBox="-5 -5 86 115" id="document__white" x="946" y="752"><defs><clipPath id="ka"><path fill="none" d="M0 0h76v105H0z"/></clipPath></defs><title>document__white</title><g data-name="Ebene 1"><g clip-path="url(#ka)"><path d="M76 105H0V0h76zm-75-1h74V1H1z" fill="#fff"/></g><path fill="#fff" d="M8.85 20.5h58.07v1H8.85zM8.85 40.5h58.07v1H8.85zM8.85 30h58.07v1H8.85zM8.85 50h58.07v1H8.85zM8.85 74.5h20.02v1H8.85z"/></g></svg><svg width="36" height="36" viewBox="-5 -5 36 36" id="info__white" x="1032" y="867"><title>info__white</title><path d="M13 0a13 13 0 1 0 13 13A13 13 0 0 0 13 0zm1 19.31a1.55 1.55 0 0 1-1.11.39 1.58 1.58 0 0 1-1.13-.39 1.57 1.57 0 0 1 0-2.13 1.57 1.57 0 0 1 1.12-.4 1.53 1.53 0 0 1 1.11.4 1.59 1.59 0 0 1 0 2.13zM16.85 12A4.92 4.92 0 0 1 14 13.11v2.08h-2.1v-3.11a6.84 6.84 0 0 0 2.89-.84 1.89 1.89 0 0 0 .87-1.66 1.72 1.72 0 0 0-.65-1.42A3 3 0 0 0 13 7.64a2.89 2.89 0 0 0-2 .68 2.82 2.82 0 0 0-.89 1.9l-2-1a4.13 4.13 0 0 1 1.61-2.54 5.63 5.63 0 0 1 3.43-1 5.8 5.8 0 0 1 3.45.94 3 3 0 0 1 1.31 2.63A3.42 3.42 0 0 1 16.85 12z" fill="#fff" data-name="Ebene 1"/></svg><svg width="86" height="123" viewBox="-5 -5 86 123" id="license" x="1068" y="903"><title>license</title><path d="M76 0H0v100.24h42.55v12a.75.75 0 0 0 1.28.53l5.52-5.46 5.52 5.46a.75.75 0 0 0 1.28-.53v-12H76zM54.63 110.46l-4.77-4.72a.75.75 0 0 0-1.06 0l-4.8 4.72V87.3l.46-.1.88 2.36a.75.75 0 0 0 1.14.34l2-1.47 1.76 1.8a.75.75 0 0 0 .54.22H51a.75.75 0 0 0 .55-.37l1.27-2.17 1.84.73zm.14-23.37l-2-.8a.75.75 0 0 0-.92.32l-1.1 1.88-1.53-1.56a.75.75 0 0 0-1-.08l-1.77 1.27-.76-2a.74.74 0 0 0-.86-.47l-2.13.45.13-2.17a.75.75 0 0 0-.59-.78l-2.13-.46 1-1.93a.75.75 0 0 0-.22-.95l-1.76-1.29 1.71-1.35a.75.75 0 0 0 .18-1l-1.08-1.89 2.11-.54a.75.75 0 0 0 .56-.8l-.22-2.17 2.15.36a.75.75 0 0 0 .84-.5l.68-2.07 1.82 1.2a.75.75 0 0 0 1-.12L50.32 68l1.17 1.84a.75.75 0 0 0 .94.28l2-.88.32 2.15a.75.75 0 0 0 .74.64h2.18l-.59 2.1a.75.75 0 0 0 .41.88l2 .89-1.39 1.68a.75.75 0 0 0 0 1l1.46 1.62-2 1a.75.75 0 0 0-.38.9l.67 2.07-2.18.09a.75.75 0 0 0-.71.67zM74.5 98.74H56.13V88.29v-.06l.27-2.5 2.52-.11a.75.75 0 0 0 .68-1l-.77-2.4 2.26-1.12a.75.75 0 0 0 .25-1.1l-1.68-1.88 1.61-1.94A.75.75 0 0 0 61 75l-2.3-1 .68-2.42a.75.75 0 0 0-.72-.95h-2.53l-.37-2.49a.75.75 0 0 0-1-.57l-2.31 1-1.35-2.12a.75.75 0 0 0-.57-.34.76.76 0 0 0-.62.24l-1.7 1.86-2.1-1.39a.75.75 0 0 0-1.13.39l-.79 2.39-2.49-.42a.76.76 0 0 0-.64.19.75.75 0 0 0-.23.62l.25 2.5-2.44.63a.75.75 0 0 0-.46 1.1l1.25 2.18-2 1.56a.75.75 0 0 0 0 1.19l2 1.49-1.17 2.23a.75.75 0 0 0 .51 1.08l2.47.53-.16 2.51a.75.75 0 0 0 .9.78l.51-.11v11.08H1.5V1.5h73z" fill="#606060" data-name="Ebene 1"/></svg><svg width="159.21" height="54.24" viewBox="-5 -5 159.21 54.24" id="logo" x="1154" y="1026"><defs><clipPath id="nb"><path fill="none" d="M20.53 26.68l-5.64-5.65L17 18.91l3.19 3.19 4.85-6.55 2.41 1.79-6.92 9.34z"/></clipPath><linearGradient id="na" data-name="Unbenannter Verlauf 3" x1="-137.45" y1="641.86" x2="-136.4" y2="641.86" gradientTransform="matrix(14.43 0 0 -14.43 1996.6 9281.26)" gradientUnits="userSpaceOnUse"><stop offset="0" stop-color="#00b945"/><stop offset="1" stop-color="#00b9b3"/></linearGradient><clipPath id="nc"><path d="M11.38 28.29V10.12h19.48v18.17l-9.74 5.41zm-3-21.16v22.92l12.74 7.07 12.74-7.07V7.12z" fill="none"/></clipPath><linearGradient id="nd" x1="-149.74" y1="623.3" x2="-148.68" y2="623.3" gradientTransform="matrix(31.3 0 0 -31.3 4690.33 19526.53)" xlink:href="#na"/></defs><title>logo</title><g data-name="Ebene 1"><path fill="#1a1a18" d="M60.58 16.53h-3.73v9.12h-2.97v-9.12h-3.74v-2.31h10.44v2.31z"/><g fill="#1a1a18"><path d="M71.08 17.29a4.45 4.45 0 0 0-.66 2.65 4.45 4.45 0 0 0 .66 2.65 2.45 2.45 0 0 0 3.8 0 4.51 4.51 0 0 0 .65-2.65 4.51 4.51 0 0 0-.65-2.65 2.45 2.45 0 0 0-3.8 0M76 14.75a4.72 4.72 0 0 1 1.93 2 6.88 6.88 0 0 1 .67 3.16 6.88 6.88 0 0 1-.67 3.16 4.72 4.72 0 0 1-1.93 2 6.73 6.73 0 0 1-6 0 4.7 4.7 0 0 1-1.94-2 6.88 6.88 0 0 1-.68-3.16 6.88 6.88 0 0 1 .68-3.16 4.69 4.69 0 0 1 1.94-2 6.73 6.73 0 0 1 6 0M93.82 14.54A6.09 6.09 0 0 1 96 16.11l-1.68 1.94a3.69 3.69 0 0 0-1.34-1.27 3.9 3.9 0 0 0-1.84-.41 2.56 2.56 0 0 0-1.38.31 1 1 0 0 0-.48.83.8.8 0 0 0 .51.7 6.62 6.62 0 0 0 1.74.49 7.62 7.62 0 0 1 3.33 1.3 2.85 2.85 0 0 1 1 2.34 3 3 0 0 1-.62 1.89 3.84 3.84 0 0 1-1.72 1.21 7 7 0 0 1-2.48.42 8.74 8.74 0 0 1-3.15-.48 5.45 5.45 0 0 1-2.09-1.46l1.52-2.08a3.87 3.87 0 0 0 1.52 1.32 5 5 0 0 0 2 .38 3 3 0 0 0 1.43-.27.84.84 0 0 0 .48-.77q0-.4-.51-.65a7.3 7.3 0 0 0-1.71-.48 12.75 12.75 0 0 1-2.43-.7 3.57 3.57 0 0 1-1.49-1.1 2.83 2.83 0 0 1-.53-1.77 3.32 3.32 0 0 1 .58-1.92 3.78 3.78 0 0 1 1.7-1.32 6.7 6.7 0 0 1 2.64-.51 7.15 7.15 0 0 1 2.78.48M111 14.54a6.09 6.09 0 0 1 2.14 1.57l-1.68 1.94a3.69 3.69 0 0 0-1.34-1.27 3.91 3.91 0 0 0-1.84-.41 2.56 2.56 0 0 0-1.38.31 1 1 0 0 0-.48.83.8.8 0 0 0 .51.7 6.62 6.62 0 0 0 1.74.49 7.62 7.62 0 0 1 3.39 1.3 2.85 2.85 0 0 1 1 2.34 3 3 0 0 1-.62 1.89 3.84 3.84 0 0 1-1.72 1.21 7 7 0 0 1-2.48.42 8.74 8.74 0 0 1-3.15-.48 5.45 5.45 0 0 1-2.09-1.5l1.52-2.08a3.87 3.87 0 0 0 1.48 1.32 5 5 0 0 0 2 .38 3 3 0 0 0 1.43-.27.84.84 0 0 0 .48-.77q0-.4-.51-.65a7.27 7.27 0 0 0-1.7-.48 12.75 12.75 0 0 1-2.43-.7 3.58 3.58 0 0 1-1.49-1.1 2.83 2.83 0 0 1-.53-1.77 3.32 3.32 0 0 1 .58-1.92 3.78 3.78 0 0 1 1.7-1.32 6.7 6.7 0 0 1 2.64-.48 7.15 7.15 0 0 1 2.78.48M129.31 25a5.75 5.75 0 0 1-3.2.86 6.07 6.07 0 0 1-3-.7 4.69 4.69 0 0 1-1.94-2 6.87 6.87 0 0 1-.68-3.16 6.88 6.88 0 0 1 .68-3.15 4.68 4.68 0 0 1 1.94-2 6.72 6.72 0 0 1 6.14.09A3.76 3.76 0 0 1 131 17.2l-2.61 1.06a2.62 2.62 0 0 0-.75-1.45 2.17 2.17 0 0 0-1.42-.42 2.32 2.32 0 0 0-2 .91 4.3 4.3 0 0 0-.69 2.64 4.42 4.42 0 0 0 .67 2.64 2.24 2.24 0 0 0 1.93.91 2.32 2.32 0 0 0 1.51-.45 2.4 2.4 0 0 0 .76-1.42l2.7.76a4.36 4.36 0 0 1-1.8 2.59"/></g><path d="M142.91 18.29l.47-1.78.5 1.8.83 2.73H142zm-1.26-4.07l-4 11.42h3l.8-2.58h3.95l.78 2.58h3.06l-4-11.42z" fill="#1a1a18"/><g clip-path="url(#nb)"><path transform="rotate(-17 21.162 21.12)" fill="url(#na)" d="M13.53 13.96H28.8v14.31H13.53z"/></g><g clip-path="url(#nc)"><path transform="rotate(-17 21.117 22.105)" fill="url(#nd)" d="M4.56 4.05h33.13v36.14H4.56z"/></g></g></svg><svg width="38" height="38" viewBox="-5 -5 38 38" id="minus__circled" x="1314" y="1081"><title>minus__circled</title><g fill="#606060" data-name="Ebene 1"><path d="M14 28a14 14 0 1 1 14-14 14 14 0 0 1-14 14zm0-27a13 13 0 1 0 13 13A13 13 0 0 0 14 1z"/><path d="M7 13.5h14v1H7z"/></g></svg><svg width="36" height="36" viewBox="-5 -5 36 36" id="permalink" x="1352" y="1119"><defs><linearGradient id="pa" data-name="Unbenannter Verlauf 6" x1="24.2" y1="1.8" x2="1.91" y2="24.09" gradientUnits="userSpaceOnUse"><stop offset="0" stop-color="#00b945"/><stop offset="0" stop-color="#00b9b3"/><stop offset="1" stop-color="#00b948"/></linearGradient></defs><title>permalink</title><path d="M6.49 26A6.49 6.49 0 0 1 1.9 14.92L6.85 10A6.5 6.5 0 0 1 16 10a1.5 1.5 0 1 1-2.12 2.12 3.5 3.5 0 0 0-4.95 0L4 17a3.5 3.5 0 0 0 5 5l2.12-2.12A1.5 1.5 0 0 1 13.21 22l-2.12 2.1a6.48 6.48 0 0 1-4.6 1.9zm12.67-10l4.95-4.95a6.5 6.5 0 0 0-9.19-9.15L12.8 4a1.5 1.5 0 0 0 2.12 2.12L17 4a3.5 3.5 0 0 1 5 5l-5 4.91a3.6 3.6 0 0 1-4.95 0A1.5 1.5 0 0 0 10 16a6.5 6.5 0 0 0 9.19 0z" fill="url(#pa)" data-name="Ebene 1"/></svg><svg width="75.35" height="89.25" viewBox="-5 -5 75.35 89.25" id="person__business" x="1388" y="1155"><title>person__business</title><g data-name="Ebene 1"><g fill="none" stroke="#000" stroke-width="1.34" opacity=".2"><path d="M44.84 39.55s9.11 3.62 14.43 7.28 5.33 13.4 5.33 13.4l-.81 18.27H1.56L.75 60.22s0-9.74 5.33-13.4 14.43-7.28 14.43-7.28"/><path d="M20.92 32.93l-.41 6.62s4.05 12.16 12.16 12.16M44.43 32.93l.41 6.62s-4.06 12.16-12.16 12.16"/><path d="M46.86 25.73v-11.3a14.17 14.17 0 0 0-28.33 0v11.3a14.17 14.17 0 0 0 28.33 0zM20.31 40s-1 11.15-1 12.16 10.34-1 10.34-1M45.13 40s1 11.15 1 12.16-10.74-1-10.74-1"/><path d="M18.43 16.91c10 0 17.68-8.49 17.68-8.49s5.51 8.49 7.26 8.49"/></g><g fill="none" stroke="#606060" stroke-miterlimit="10" stroke-width="1.5"><path d="M44.84 39.55s9.11 3.62 14.43 7.28 5.33 13.4 5.33 13.4l-.81 18.27H1.56L.75 60.22s0-9.74 5.33-13.4 14.43-7.28 14.43-7.28"/><path d="M20.92 32.93l-.41 6.62s4.05 12.16 12.16 12.16M44.43 32.93l.41 6.62s-4.06 12.16-12.16 12.16"/><path d="M46.86 25.73v-11.3a14.17 14.17 0 0 0-28.33 0v11.3a14.17 14.17 0 0 0 28.33 0zM20.31 40s-1 11.15-1 12.16 10.34-1 10.34-1M45.13 40s1 11.15 1 12.16-10.74-1-10.74-1"/><path d="M18.43 16.91c10 0 17.68-8.49 17.68-8.49s5.51 8.49 7.26 8.49"/></g><path fill="none" stroke="#606060" stroke-linejoin="round" stroke-width="1.5" d="M37.36 51.71h-8.78l2.01 6.08h4.75l2.02-6.08zM30.96 57.79L27.74 78.5h10.45l-3.21-20.71h-4.02z"/></g></svg><svg width="75.35" height="111.98" viewBox="-5 -5 75.35 111.98" id="person__business__principal" x="1464" y="1245"><title>person__business__principal</title><g data-name="Ebene 1"><g fill="none" stroke="#000" stroke-width="1.34" opacity=".2"><path d="M44.84 62.28s9.11 3.62 14.43 7.28S64.6 83 64.6 83l-.81 18.28H1.56L.75 83s0-9.74 5.33-13.4 14.43-7.28 14.43-7.28"/><path d="M20.92 55.66l-.41 6.62s4.05 12.16 12.16 12.16M44.43 55.66l.41 6.62s-4.06 12.16-12.16 12.16"/><path d="M46.86 48.46v-11.3a14.17 14.17 0 0 0-28.33 0v11.3a14.17 14.17 0 0 0 28.33 0zM20.31 62.75s-1 11.15-1 12.16 10.34-1 10.34-1M45.13 62.75s1 11.15 1 12.16-10.74-1-10.74-1"/><path d="M18.43 39.64c10 0 17.68-8.49 17.68-8.49s5.51 8.49 7.26 8.49M32.62 1.33l-10.1 14.81h20.21L32.62 1.33z"/><path d="M18.94 2.41v13.73h12.61L18.94 2.41zM46.3 2.42v13.72H33.84L46.3 2.42z"/></g><g fill="none" stroke="#606060" stroke-miterlimit="10" stroke-width="1.5"><path d="M44.84 62.28s9.11 3.62 14.43 7.28S64.6 83 64.6 83l-.81 18.28H1.56L.75 83s0-9.74 5.33-13.4 14.43-7.28 14.43-7.28"/><path d="M20.92 55.66l-.41 6.62s4.05 12.16 12.16 12.16M44.43 55.66l.41 6.62s-4.06 12.16-12.16 12.16"/><path d="M46.86 48.46v-11.3a14.17 14.17 0 0 0-28.33 0v11.3a14.17 14.17 0 0 0 28.33 0zM20.31 62.75s-1 11.15-1 12.16 10.34-1 10.34-1M45.13 62.75s1 11.15 1 12.16-10.74-1-10.74-1"/><path d="M18.43 39.64c10 0 17.68-8.49 17.68-8.49s5.51 8.49 7.26 8.49M32.62 1.33l-10.1 14.81h20.21L32.62 1.33z"/><path d="M18.94 2.41v13.73h12.61L18.94 2.41zM46.3 2.42v13.72H33.84L46.3 2.42z"/></g><path fill="none" stroke="#606060" stroke-linejoin="round" stroke-width="1.5" d="M37.36 74.44h-8.78l2.01 6.08h4.75l2.02-6.08z"/><path fill="none" stroke="#606060" stroke-linejoin="round" stroke-width="1.5" d="M30.96 80.52l-3.22 20.71h10.45l-3.21-20.71h-4.02z"/></g></svg><svg width="59.39" height="87.08" viewBox="-5 -5 59.39 87.08" id="person__business__principal__small" x="1540" y="1357"><title>person__business__principal__small</title><g data-name="Ebene 1"><g fill="none" stroke="#fff" stroke-miterlimit="10" stroke-width="1.5" opacity=".2"><path d="M23.55 76.26H1.36L.75 62.55s0-7.31 4-10A68.92 68.92 0 0 1 15.57 47"/><path d="M19 76.26h29l.61-13.71s0-7.31-4-10A68.92 68.92 0 0 0 33.82 47M15.88 42.08l-.3 5s3 9.12 9.12 9.12"/><path d="M33.51 42.08l.3 5s-3 9.12-9.12 9.12"/><path d="M35.34 36.68V28.2a10.63 10.63 0 0 0-21.24 0v8.47a10.63 10.63 0 0 0 21.24 0zM15.42 47.4s-.76 8.36-.76 9.12 7.75-.76 7.75-.76M34 47.4s.76 8.36.76 9.12-8.06-.76-8.06-.76"/><path d="M14 30.06c7.49 0 13.26-6.37 13.26-6.37s4.14 6.37 5.44 6.37M24.65 1.33l-7.57 11.11h15.15L24.65 1.33z"/><path d="M14.39 2.14v10.3h9.46l-9.46-10.3zM34.92 2.15v10.29h-9.35l9.35-10.29z"/></g><path fill="none" stroke="#fff" stroke-miterlimit="10" stroke-width="1.5" d="M28.21 56.16h-6.59l1.51 4.56h3.57l1.51-4.56zM23.41 60.72L21 76.33h7.83l-2.41-15.61h-3.01z"/></g></svg><svg width="74" height="110.02" viewBox="-5 -5 74 110.02" id="person__business__principal__white" x="1600" y="1445"><title>person__business__principal__white</title><g data-name="Ebene 1" fill="#fff"><path d="M64 81.42c0-.4-.06-9.92-5.47-13.63-4.73-3.24-12.49-6.48-14-7.11l-.36-5.84a14.46 14.46 0 0 0 2.33-6.94h.05V35.74a14.48 14.48 0 0 0-28.9 0h-.15v12.15a14.46 14.46 0 0 0 2.33 6.94l-.36 5.84c-1.55.63-9.32 3.87-14 7.11C.06 71.5 0 81 0 81.44L.82 100h62.36zM30.5 99h-2.82l3-19.47h3.12l3 19.47zm3.72-20.47h-4l-1.66-5H35.84zm-14-15.63c1.08 2.51 3.5 7.17 7.33 9.4-3.56.65-7.26 1.15-8.2 1 .03-1.39.5-6.77.83-10.44zm16.21 9.4c4-2.27 6.42-7.14 7.47-9.62.33 3.67.82 9.2.89 10.56-.96.17-4.65-.3-8.36-.94zM18.5 47.09v-7.93c8.46-.26 15.07-6.3 16.82-8.05 1.61 2.44 5.53 8.08 7.24 8.08v-1c-.9 0-4.2-4.23-6.74-8.15l-.35-.54-.47.5c-.07.08-7.26 7.88-16.52 8.18v-1.92a13.48 13.48 0 0 1 27 0V47.37a13.49 13.49 0 0 1-2.34 7.15 13.5 13.5 0 0 1-22.21 0 13.49 13.49 0 0 1-2.34-7.15zM32 61.39a14.42 14.42 0 0 0 11.2-5.29l.3 4.86c-.37 1-4 10.9-10.81 11.54h-1.37C24.56 71.86 20.88 62 20.5 61l.3-4.86A14.42 14.42 0 0 0 32 61.39zM24.5 99H1.78L1 81.42c0-.09.06-9.39 5-12.81a85 85 0 0 1 13.23-6.75c-.19 2-1 10.71-1 11.62a.65.65 0 0 0 .24.51 2.66 2.66 0 0 0 1.44.25 50.71 50.71 0 0 0 7.49-1l2.06 6.2h.14L26.67 99zm37.72 0H37.81l-3-19.47h.14l2-6.08a50.29 50.29 0 0 0 7.09.84 2.78 2.78 0 0 0 1.5-.26.64.64 0 0 0 .24-.5c0-.9-.77-9.47-1-11.59A84.47 84.47 0 0 1 58 68.62c5 3.41 5 12.71 5 12.79zM32 16h13.95V.67l-7.74 8.51L31.95 0l-6.23 9.13L17.95.67V16H32zm-9.1-1l2.91-4.26L29.75 15zm11.35 0l3.82-4.21L41 15zm10.7-11.75V15h-2.77l-3.39-5zm-13-1.48l5.57 8.17L32.93 15H31.1l-4.69-5.11zm-13 1.46L25.14 10l-3.42 5h-2.77z"/></g></svg><svg width="59.39" height="87.01" viewBox="-5 -5 59.39 87.01" id="person__business__principal__white__small" x="1674" y="1556"><title>person__business__principal__white__small</title><g data-name="Ebene 1"><path fill="none" stroke="#fff" stroke-miterlimit="10" stroke-width="1.5" d="M28.21 56.16h-6.59l1.51 4.56h3.57l1.51-4.56zM23.41 60.72L21 76.26h7.83l-2.41-15.54h-3.01z"/><path d="M23.55 76.26H1.36L.75 62.55s0-7.31 4-10A68.92 68.92 0 0 1 15.57 47" fill="none" stroke="#fff" stroke-miterlimit="10" stroke-width="1.5"/><path d="M19 76.26h29l.61-13.71s0-7.31-4-10A68.92 68.92 0 0 0 33.82 47M15.88 42.08l-.3 5s3 9.12 9.12 9.12" fill="none" stroke="#fff" stroke-miterlimit="10" stroke-width="1.5"/><path d="M33.51 42.08l.3 5s-3 9.12-9.12 9.12M15.42 47.4s-.76 8.36-.76 9.12 7.75-.76 7.75-.76" fill="none" stroke="#fff" stroke-miterlimit="10" stroke-width="1.5"/><path d="M34 47.4s.76 8.36.76 9.12-8.06-.76-8.06-.76M35.34 36.68V28.2a10.63 10.63 0 0 0-21.24 0v8.47a10.63 10.63 0 0 0 21.24 0z" fill="none" stroke="#fff" stroke-miterlimit="10" stroke-width="1.5"/><path d="M14 30.06c7.49 0 13.26-6.37 13.26-6.37s4.14 6.37 5.44 6.37M34.92 2.15v10.29h-9.35l9.35-10.29z" fill="none" stroke="#fff" stroke-miterlimit="10" stroke-width="1.5"/><path fill="none" stroke="#fff" stroke-miterlimit="10" stroke-width="1.5" d="M24.65 1.33l-7.57 11.11h15.15L24.65 1.33z"/><path fill="none" stroke="#fff" stroke-miterlimit="10" stroke-width="1.5" d="M14.39 2.14v10.3h9.46l-9.46-10.3z" opacity=".2"/><path fill="none" stroke="#fff" stroke-miterlimit="10" stroke-width="1.5" d="M14.39 2.14v10.3h9.46l-9.46-10.3z"/></g></svg><svg width="75.35" height="89.25" viewBox="-5 -5 75.35 89.25" id="person__private" x="1734" y="1644"><title>person__private</title><g data-name="Ebene 1"><g fill="none" stroke="#000" stroke-width="1.34" opacity=".2"><path d="M44.84 39.55s9.11 3.62 14.43 7.28 5.33 13.4 5.33 13.4l-.81 18.27H1.56L.75 60.22s0-9.74 5.33-13.4 14.43-7.28 14.43-7.28"/><path d="M20.92 32.93l-.41 6.62s4.05 12.16 12.16 12.16M44.43 32.93l.41 6.62s-4.06 12.16-12.16 12.16V78.5"/><path d="M46.86 25.73v-11.3a14.17 14.17 0 0 0-28.33 0v11.3a14.17 14.17 0 0 0 28.33 0zM20.31 40s-1 11.15-1 12.16 10.34-1 10.34-1M45.13 40s1 11.15 1 12.16-10.74-1-10.74-1"/><path d="M18.43 16.91c10 0 17.68-8.49 17.68-8.49s5.51 8.49 7.26 8.49"/></g><g fill="none" stroke="#606060" stroke-miterlimit="10" stroke-width="1.5"><path d="M44.84 39.55s9.11 3.62 14.43 7.28 5.33 13.4 5.33 13.4l-.81 18.27H1.56L.75 60.22s0-9.74 5.33-13.4 14.43-7.28 14.43-7.28"/><path d="M20.92 32.93l-.41 6.62s4.05 12.16 12.16 12.16M44.43 32.93l.41 6.62s-4.06 12.16-12.16 12.16V78.5"/><path d="M46.86 25.73v-11.3a14.17 14.17 0 0 0-28.33 0v11.3a14.17 14.17 0 0 0 28.33 0zM20.31 40s-1 11.15-1 12.16 10.34-1 10.34-1M45.13 40s1 11.15 1 12.16-10.74-1-10.74-1"/><path d="M18.43 16.91c10 0 17.68-8.49 17.68-8.49s5.51 8.49 7.26 8.49"/></g></g></svg><svg width="38" height="38" viewBox="-5 -5 38 38" id="plus__circled" x="1810" y="1734"><title>plus__circled</title><g fill="#606060" data-name="Ebene 1"><path d="M14 28a14 14 0 1 1 14-14 14 14 0 0 1-14 14zm0-27a13 13 0 1 0 13 13A13 13 0 0 0 14 1z"/><path d="M21 13.5h-6.5V7h-1v6.5H7v1h6.5V21h1v-6.5H21v-1z"/></g></svg><svg width="86" height="71.46" viewBox="-5 -5 86 71.46" id="screen__code" x="1848" y="1772"><title>screen__code</title><g fill="#606060" data-name="Ebene 1"><path d="M32.43 33.04l10.284-15.927.79.51L33.218 33.55zM27.23 16.32l-6.88 9.01 6.88 9.01.75-.57-6.45-8.44 6.45-8.44-.75-.57zM48.02 16.89l6.45 8.44-6.45 8.44.75.57 6.88-9.01-6.88-9.01-.75.57z"/><path d="M76 50.67V0H0v50.67h37.53v9.85H24.86v.94h26.28v-.94H38.47v-9.85zM.94.94h74.12v48.79H.94z"/></g></svg></svg>